<svg width="12px" height="12px" viewBox="0 0 12 12" version="1.1" xmlns="http://www.w3.org/2000/svg" xmlns:xlink="http://www.w3.org/1999/xlink"><defs></defs><g id="homepage-dropdown" stroke="none" stroke-width="1" fill="none" fill-rule="evenodd"><g id="mobile-dropdown-1-" transform="translate(-340.000000, -135.000000)" fill="#222222" fill-rule="nonzero"><g id="dropdown" transform="translate(0.000000, 101.000000)"><path d="M351.151991,34.1454503 L346.000703,39.2973416 L340.848009,34.1454503 C340.654098,33.9515166 340.339344,33.9515166 340.145433,34.1454503 C339.951522,34.339384 339.951522,34.654175 340.145433,34.8481087 L345.298126,40 L340.146838,45.1518913 C339.952927,45.345825 339.952927,45.660616 340.146838,45.8545497 C340.340749,46.0484834 340.655504,46.0484834 340.849415,45.8545497 L346.000703,40.7026584 L351.151991,45.8545497 C351.345902,46.0484834 351.660656,46.0484834 351.854567,45.8545497 C352.048478,45.660616 352.048478,45.345825 351.854567,45.1518913 L346.703279,40 L351.854567,34.8481087 C352.048478,34.654175 352.048478,34.339384 351.854567,34.1454503 C351.660656,33.9515166 351.345902,33.9515166 351.151991,34.1454503 Z" id="Shape"></path></g></g></g></svg>