
<svg width="22px" height="22px" viewBox="0 0 22 22" version="1.1" xmlns="http://www.w3.org/2000/svg" xmlns:xlink="http://www.w3.org/1999/xlink">
    <defs></defs>
    <g id="store-listing" stroke="none" stroke-width="1" fill="none" fill-rule="evenodd">
        <g id="t50_stores_listings-option-2" transform="translate(-731.000000, -183.000000)" fill="#000000" fill-rule="nonzero">
            <g id="search" transform="translate(91.000000, 175.000000)">
                <g id="noun_Search_1793154_000000" transform="translate(640.000000, 8.000000)">
                    <path d="M17.2572654,16.2213333 C20.5782554,12.3681556 20.414443,6.5296 16.7599604,2.87588889 C14.9052133,1.02128889 12.4392261,0 9.81602783,0 C7.1928296,0 4.72659784,1.02128889 2.87160623,2.87588889 C-0.957202076,6.70413333 -0.957202076,12.9330667 2.87160623,16.7613111 C4.72635334,18.6159111 7.1925851,19.6372 9.81578333,19.6372 C12.192774,19.6372 14.4392038,18.7960667 16.2203576,17.259 L20.7479357,21.7856222 C20.8909659,21.9283778 21.0787388,22 21.2665118,22 C21.4542848,22 21.6420578,21.9283778 21.785088,21.7851333 C22.0716373,21.4988889 22.0716373,21.0344444 21.785088,20.7482 L17.2572654,16.2213333 Z M3.90900301,15.7241333 C0.652070993,12.4678889 0.652070993,7.16931111 3.90900301,3.91282222 C5.48673609,2.33542222 7.58475678,1.46666667 9.81602783,1.46666667 C12.0472989,1.46666667 14.1450751,2.33542222 15.7228081,3.91282222 C18.9797402,7.16931111 18.9797402,12.4678889 15.7228081,15.7241333 C14.1448306,17.3015333 12.0470544,18.1702889 9.81578333,18.1702889 C7.58451229,18.1702889 5.48673609,17.3015333 3.90900301,15.7241333 Z" id="Shape"></path>
                </g>
            </g>
        </g>
    </g>
</svg>