<?xml version="1.0" encoding="iso-8859-1"?>
<!-- Generator: Adobe Illustrator 25.4.1, SVG Export Plug-In . SVG Version: 6.00 Build 0)  -->
<svg version="1.1" id="Layer_1" xmlns="http://www.w3.org/2000/svg" xmlns:xlink="http://www.w3.org/1999/xlink" x="0px" y="0px"
	 viewBox="0 0 47.575 17.221" style="enable-background:new 0 0 47.575 17.221;" xml:space="preserve">
<g>
	<path style="fill:#D3AF5B;" d="M5.015,1.442L3.526,2.533l1.718,2.345L4.47,5.444L2.753,3.101L0.637,4.651L0,3.782L5.158,0
		l2.539,3.463L6.911,4.029L5.015,1.442z"/>
	<path style="fill:#D3AF5B;" d="M3.784,8.441l4.478-4.567l0.77,0.755L4.554,9.196L3.784,8.441z"/>
	<path style="fill:#D3AF5B;" d="M10.295,13.46L9.889,7.757L7.42,11.626l-0.909-0.582L9.953,5.65l0.895,0.57l0.415,5.721l2.475-3.876
		l0.894,0.571l-3.443,5.394L10.295,13.46z"/>
	<path style="fill:#D3AF5B;" d="M18.413,9.889c1.851,0.508,2.834,2.17,2.343,3.959c-0.487,1.779-2.193,2.713-4.061,2.201
		l-2.502-0.688l1.691-6.166L18.413,9.889z M15.488,14.713l1.516,0.416c1.198,0.329,2.358-0.31,2.702-1.561
		c0.346-1.26-0.351-2.417-1.566-2.75l-1.472-0.404L15.488,14.713z"/>
	<path style="fill:#D3AF5B;" d="M29.843,16.647l-3.97-4.117l0.587,4.554l-1.071,0.137l-0.816-6.35l1.052-0.136l3.988,4.125
		l-0.587-4.562l1.053-0.136l0.816,6.35L29.843,16.647z"/>
	<path style="fill:#D3AF5B;" d="M32.734,10.195l0.68,1.589l2.876-1.229l0.38,0.892l-2.875,1.229l0.693,1.623l3.313-1.416
		l0.381,0.891l-4.306,1.841l-2.516-5.886l4.204-1.797l0.382,0.891L32.734,10.195z"/>
	<path style="fill:#D3AF5B;" d="M44.602,9.164l-1.017,0.792l-2.848-0.84l0.13,2.96l-0.995,0.776l-0.181-4.021l-3.626-1.126
		l0.987-0.771l2.599,0.79l-0.126-2.719l0.995-0.775l0.195,3.743L44.602,9.164z"/>
	<path style="fill:#D3AF5B;" d="M43.304,2.243l4.271,3.358L46.909,6.45l-4.272-3.358l-1.25,1.591l-0.762-0.6l3.171-4.034
		l0.762,0.599L43.304,2.243z"/>
</g>
</svg>
